# xmcd
#
# Track frame offsets:
# 150
# 11899
# 31387
# 47795
# 66901
# 81537
# 95426
# 108267
# 120728
# 131466
#
# Disc length: 1975 seconds
#
#
# Revision: 0
# Processed by: cddbd v1.5.1PL2 Copyright (c) Steve Scherf et al.
# Submitted via: FreeRIP 2.944 
#
DISCID=8707b50a
DTITLE=Gene Watson - At His Best
DYEAR=2005
DGENRE=Country
TTITLE0=Fourteen Carat Mind
TTITLE1=Change Her Mind
TTITLE2=No Goodbyes
TTITLE3=You Gave Me A Mountain
TTITLE4=Your Uncharted Mind
TTITLE5=Cool Ole Fool
TTITLE6=Give Her My Best
TTITLE7=Glass Heart
TTITLE8=He's Back In Texas
TTITLE9=Mirrors Don't Lie
EXTD=Gusto Records
EXTT0=
EXTT1=
EXTT2=
EXTT3=
EXTT4=
EXTT5=
EXTT6=
EXTT7=
EXTT8=
EXTT9=
PLAYORDER=
